<?xml version="1.0" standalone="yes"?>

<svg version="1.1" viewBox="0.0 0.0 539.0813648293963 204.82939632545933" fill="none" stroke="none" stroke-linecap="square" stroke-miterlimit="10" xmlns="http://www.w3.org/2000/svg" xmlns:xlink="http://www.w3.org/1999/xlink"><clipPath id="p.0"><path d="m0 0l539.08136 0l0 204.82939l-539.08136 0l0 -204.82939z" clip-rule="nonzero"></path></clipPath><g clip-path="url(#p.0)"><path fill="#000000" fill-opacity="0.0" d="m0 0l539.08136 0l0 204.82939l-539.08136 0z" fill-rule="nonzero"></path><path fill="#fff2cc" d="m299.3071 39.09378l174.17322 0l0 84.4042l-174.17322 0z" fill-rule="nonzero"></path><path stroke="#000000" stroke-width="1.0" stroke-linejoin="round" stroke-linecap="butt" d="m299.3071 39.09378l174.17322 0l0 84.4042l-174.17322 0z" fill-rule="nonzero"></path><path fill="#000000" d="m309.26022 54.17003l1.5 0q0.015625 0 0.015625 0.046875q0 0.078125 -0.09375 0.21875q-0.078125 0.140625 -0.109375 0.34375l0 7.171875q0 0.984375 0.1875 1.53125q0.1875 0.53125 0.53125 0.890625q0.34375 0.34375 0.796875 0.515625q0.46875 0.171875 1.0 0.21875q0.53125 -0.046875 1.0 -0.1875q0.46875 -0.15625 0.8125 -0.53125q0.359375 -0.375 0.5625 -0.921875q0.203125 -0.546875 0.203125 -1.578125l0 -7.71875l1.265625 0l0 7.703125q0 1.15625 -0.265625 1.953125q-0.25 0.796875 -0.78125 1.328125q-0.53125 0.53125 -1.234375 0.796875q-0.703125 0.265625 -1.578125 0.265625q-0.859375 0 -1.5625 -0.265625q-0.6875 -0.265625 -1.203125 -0.765625q-0.5 -0.515625 -0.78125 -1.25q-0.265625 -0.75 -0.265625 -2.0l0 -7.765625zm10.046875 0l5.875 0l0 1.125l-2.34375 0l0 9.640625l2.453125 0l0 1.09375l-6.125 0l0 -1.125l2.34375 0l0 -9.609375l-2.203125 0l0 -1.125z" fill-rule="nonzero"></path><path fill="#000000" d="m316.57272 77.57628l-0.84375 1.140625q-0.09375 -0.03125 -0.109375 -0.15625q0 -0.125 -0.03125 -0.1875q-0.359375 -0.53125 -0.984375 -0.84375q-0.609375 -0.328125 -1.53125 -0.328125q-0.875 0 -1.453125 0.515625q-0.578125 0.515625 -0.578125 1.21875q0 0.421875 0.140625 0.71875q0.140625 0.296875 0.4375 0.59375q0.296875 0.28125 0.859375 0.578125q0.578125 0.296875 1.484375 0.65625q0.875 0.359375 1.4375 0.71875q0.578125 0.34375 0.921875 0.75q0.34375 0.390625 0.484375 0.84375q0.140625 0.4375 0.140625 0.984375q0 0.609375 -0.234375 1.234375q-0.21875 0.609375 -0.703125 1.09375q-0.484375 0.484375 -1.234375 0.796875q-0.734375 0.296875 -1.78125 0.296875q-2.296875 0 -3.703125 -1.515625l0.78125 -1.375q0.09375 0.0625 0.09375 0.203125q0 0.125 0.0625 0.203125q0.4375 0.546875 1.171875 0.921875q0.75 0.375 1.796875 0.375q0.53125 0 0.96875 -0.1875q0.453125 -0.1875 0.765625 -0.46875q0.328125 -0.296875 0.515625 -0.703125q0.1875 -0.421875 0.1875 -0.875q0 -0.359375 -0.125 -0.65625q-0.109375 -0.296875 -0.40625 -0.546875q-0.28125 -0.25 -0.8125 -0.5q-0.515625 -0.265625 -1.375 -0.609375q-0.921875 -0.359375 -1.546875 -0.734375q-0.609375 -0.375 -1.0 -0.75q-0.375 -0.375 -0.53125 -0.8125q-0.15625 -0.4375 -0.15625 -0.953125q0 -0.640625 0.265625 -1.203125q0.28125 -0.578125 0.765625 -1.0q0.484375 -0.4375 1.140625 -0.671875q0.671875 -0.234375 1.4375 -0.234375q0.96875 0 1.8125 0.390625q0.859375 0.375 1.46875 1.078125zm5.984375 1.546875q0.6875 0 1.328125 0.25q0.640625 0.25 1.125 0.75q0.484375 0.5 0.78125 1.28125q0.296875 0.78125 0.296875 1.84375q0 0.15625 -0.015625 0.3125q0 0.15625 -0.015625 0.3125l-6.1875 0q0.046875 0.90625 0.3125 1.53125q0.28125 0.609375 0.703125 1.0q0.421875 0.375 0.921875 0.546875q0.515625 0.15625 1.03125 0.15625q1.359375 0 2.25 -0.96875l0.75 0.734375q-1.09375 1.328125 -3.03125 1.328125q-0.953125 0 -1.75 -0.296875q-0.78125 -0.296875 -1.34375 -0.859375q-0.546875 -0.5625 -0.84375 -1.40625q-0.296875 -0.859375 -0.296875 -1.9375q0 -1.109375 0.3125 -1.953125q0.3125 -0.859375 0.84375 -1.4375q0.546875 -0.578125 1.265625 -0.875q0.71875 -0.3125 1.5625 -0.3125zm-2.625 3.6875l4.765625 0q0 -0.078125 0.015625 -0.140625q0.015625 -0.078125 0.015625 -0.171875q0 -0.46875 -0.1875 -0.890625q-0.1875 -0.4375 -0.484375 -0.75q-0.296875 -0.3125 -0.71875 -0.5q-0.40625 -0.1875 -0.875 -0.1875q-0.890625 0 -1.625 0.640625q-0.71875 0.625 -0.90625 2.0zm8.90625 -3.484375l1.4375 0l-0.046875 1.671875q0.40625 -0.90625 1.265625 -1.390625q0.859375 -0.484375 1.859375 -0.484375q1.40625 0 2.3125 0.953125l-0.625 1.3125q-0.21875 -0.296875 -0.390625 -0.484375q-0.15625 -0.1875 -0.359375 -0.3125q-0.203125 -0.140625 -0.4375 -0.21875q-0.234375 -0.078125 -0.578125 -0.078125q-0.625 0 -1.1875 0.296875q-0.546875 0.296875 -0.953125 0.78125q-0.40625 0.484375 -0.65625 1.109375q-0.25 0.625 -0.25 1.3125l0 4.234375l-1.390625 0l0 -8.703125zm8.40625 0.484375l-0.1875 -0.484375l1.625 0q0 0.140625 -0.03125 0.25q-0.015625 0.09375 -0.015625 0.171875q0 0.03125 0.015625 0.0625l2.5 6.34375l1.40625 -3.234375q0.453125 -1.046875 0.734375 -1.9375q0.296875 -0.890625 0.453125 -1.65625l1.234375 0q-0.390625 1.59375 -1.3125 3.796875l-2.109375 4.953125l-1.0625 0l-3.25 -8.265625zm13.296875 -0.6875q0.6875 0 1.328125 0.25q0.640625 0.25 1.125 0.75q0.484375 0.5 0.78125 1.28125q0.296875 0.78125 0.296875 1.84375q0 0.15625 -0.015625 0.3125q0 0.15625 -0.015625 0.3125l-6.1875 0q0.046875 0.90625 0.3125 1.53125q0.28125 0.609375 0.703125 1.0q0.421875 0.375 0.921875 0.546875q0.515625 0.15625 1.03125 0.15625q1.359375 0 2.25 -0.96875l0.75 0.734375q-1.09375 1.328125 -3.03125 1.328125q-0.953125 0 -1.75 -0.296875q-0.78125 -0.296875 -1.34375 -0.859375q-0.546875 -0.5625 -0.84375 -1.40625q-0.296875 -0.859375 -0.296875 -1.9375q0 -1.109375 0.3125 -1.953125q0.3125 -0.859375 0.84375 -1.4375q0.546875 -0.578125 1.265625 -0.875q0.71875 -0.3125 1.5625 -0.3125zm-2.625 3.6875l4.765625 0q0 -0.078125 0.015625 -0.140625q0.015625 -0.078125 0.015625 -0.171875q0 -0.46875 -0.1875 -0.890625q-0.1875 -0.4375 -0.484375 -0.75q-0.296875 -0.3125 -0.71875 -0.5q-0.40625 -0.1875 -0.875 -0.1875q-0.890625 0 -1.625 0.640625q-0.71875 0.625 -0.90625 2.0zm8.90625 -3.484375l1.4375 0l-0.046875 1.671875q0.40625 -0.90625 1.265625 -1.390625q0.859375 -0.484375 1.859375 -0.484375q1.40625 0 2.3125 0.953125l-0.625 1.3125q-0.21875 -0.296875 -0.390625 -0.484375q-0.15625 -0.1875 -0.359375 -0.3125q-0.203125 -0.140625 -0.4375 -0.21875q-0.234375 -0.078125 -0.578125 -0.078125q-0.625 0 -1.1875 0.296875q-0.546875 0.296875 -0.953125 0.78125q-0.40625 0.484375 -0.65625 1.109375q-0.25 0.625 -0.25 1.3125l0 4.234375l-1.390625 0l0 -8.703125z" fill-rule="nonzero"></path><path fill="#d9ead3" d="m386.37796 52.933548l87.1181 0l0 22.374725l-87.1181 0z" fill-rule="nonzero"></path><path stroke="#666666" stroke-width="1.0" stroke-linejoin="round" stroke-linecap="butt" d="m386.37796 52.933548l87.1181 0l0 22.374725l-87.1181 0z" fill-rule="nonzero"></path><path fill="#000000" d="m402.20258 60.01216l1.046875 0l1.078125 6.734375l1.59375 -6.0l0.359375 0l1.609375 6.03125l0.90625 -6.765625l0.953125 0l-1.59375 10.03125l-0.421875 0l-1.71875 -6.578125l-1.734375 6.578125l-0.46875 0l-1.609375 -10.03125zm11.8750305 2.484375q0.578125 0 1.125 0.203125q0.546875 0.203125 0.953125 0.640625q0.40625 0.421875 0.65625 1.078125q0.25 0.65625 0.25 1.546875q0 0.125 -0.015625 0.265625q0 0.140625 -0.015625 0.265625l-5.203125 0q0.03125 0.765625 0.265625 1.28125q0.234375 0.515625 0.578125 0.84375q0.359375 0.3125 0.78125 0.453125q0.4375 0.140625 0.875 0.140625q1.125 0 1.875 -0.8125l0.640625 0.625q-0.921875 1.109375 -2.546875 1.109375q-0.8125 0 -1.484375 -0.25q-0.65625 -0.25 -1.125 -0.71875q-0.453125 -0.484375 -0.71875 -1.1875q-0.25 -0.71875 -0.25 -1.625q0 -0.9375 0.265625 -1.65625q0.265625 -0.71875 0.71875 -1.203125q0.453125 -0.484375 1.0625 -0.734375q0.609375 -0.265625 1.3125 -0.265625zm-2.203125 3.09375l4.015625 0q0 -0.0625 0 -0.109375q0.015625 -0.0625 0.015625 -0.140625q0 -0.40625 -0.15625 -0.765625q-0.15625 -0.359375 -0.40625 -0.609375q-0.25 -0.265625 -0.59375 -0.421875q-0.34375 -0.171875 -0.75 -0.171875q-0.75 0 -1.359375 0.546875q-0.609375 0.53125 -0.765625 1.671875zm7.015625 -6.25l1.34375 0l0 0.03125q0 0.078125 -0.09375 0.15625q-0.078125 0.0625 -0.078125 0.171875l0 4.09375q0.359375 -0.59375 0.953125 -0.9375q0.609375 -0.359375 1.21875 -0.359375q0.609375 0 1.15625 0.234375q0.546875 0.21875 0.953125 0.703125q0.421875 0.46875 0.65625 1.171875q0.25 0.703125 0.25 1.640625q0 1.0 -0.265625 1.734375q-0.265625 0.71875 -0.703125 1.21875q-0.421875 0.484375 -0.96875 0.71875q-0.546875 0.234375 -1.125 0.234375q-0.671875 0 -1.234375 -0.296875q-0.546875 -0.3125 -0.921875 -0.828125l-0.390625 0.953125l-0.75 0l0 -10.640625zm2.0 9.515625q0.3125 0.171875 0.546875 0.234375q0.25 0.046875 0.453125 0.046875q0.3125 0 0.703125 -0.125q0.390625 -0.125 0.71875 -0.421875q0.328125 -0.3125 0.53125 -0.8125q0.21875 -0.515625 0.21875 -1.296875q0 -1.453125 -0.59375 -2.21875q-0.59375 -0.78125 -1.703125 -0.78125q-0.40625 0 -0.859375 0.296875q-0.4375 0.28125 -0.65625 0.765625q-0.1875 0.484375 -0.1875 1.5625q0 0.671875 0.03125 1.140625q0.03125 0.46875 0.125 0.78125q0.109375 0.3125 0.265625 0.5q0.15625 0.1875 0.40625 0.328125zm14.5000305 -5.328125q0.984375 -1.015625 2.609375 -1.015625q1.34375 0 2.109375 0.6875q0.78125 0.671875 0.78125 2.25l0 4.53125l-1.078125 0l0 -0.796875q-1.171875 0.96875 -2.625 0.96875q-0.578125 0 -1.03125 -0.171875q-0.453125 -0.171875 -0.78125 -0.453125q-0.3125 -0.296875 -0.484375 -0.65625q-0.171875 -0.375 -0.171875 -0.75q0 -1.09375 0.953125 -1.734375q0.953125 -0.640625 2.75 -0.703125l1.375 0l0 -0.28125q0 -1.078125 -0.46875 -1.515625q-0.453125 -0.4375 -1.40625 -0.4375q-1.1875 0 -1.96875 0.8125l-0.5625 -0.734375zm4.453125 3.03125l-0.28125 0q-0.21875 0 -0.421875 0q-0.1875 -0.015625 -0.390625 -0.015625q-0.875 0 -1.4375 0.125q-0.5625 0.109375 -0.890625 0.328125q-0.3125 0.203125 -0.4375 0.46875q-0.109375 0.265625 -0.109375 0.5625q0 0.515625 0.4375 0.890625q0.453125 0.359375 1.109375 0.359375q0.484375 0 0.859375 -0.15625q0.390625 -0.15625 0.671875 -0.359375q0.296875 -0.21875 0.46875 -0.453125q0.171875 -0.234375 0.265625 -0.40625q0.15625 -0.328125 0.15625 -0.859375l0 -0.484375zm3.0469055 -3.890625l1.171875 0l0 1.125q0.375 -0.59375 0.984375 -0.9375q0.625 -0.34375 1.25 -0.34375q0.59375 0 1.140625 0.234375q0.5625 0.21875 0.984375 0.6875q0.421875 0.46875 0.671875 1.171875q0.25 0.703125 0.25 1.65625q0 0.96875 -0.265625 1.703125q-0.265625 0.734375 -0.703125 1.234375q-0.421875 0.484375 -0.984375 0.734375q-0.546875 0.234375 -1.109375 0.234375q-0.6875 0 -1.265625 -0.296875q-0.5625 -0.3125 -0.9375 -0.84375l0 3.625l-1.1875 0l0 -9.984375zm1.171875 4.265625q0.03125 1.1875 0.546875 1.703125q0.515625 0.515625 1.265625 0.515625q0.40625 0 0.796875 -0.125q0.40625 -0.140625 0.734375 -0.453125q0.34375 -0.3125 0.53125 -0.8125q0.203125 -0.515625 0.203125 -1.28125q0 -1.40625 -0.578125 -2.1875q-0.578125 -0.78125 -1.640625 -0.8125q-0.328125 0 -0.671875 0.125q-0.328125 0.109375 -0.59375 0.375q-0.25 0.265625 -0.421875 0.734375q-0.171875 0.453125 -0.171875 1.125l0 1.09375zm6.828125 -4.265625l1.171875 0l0 1.125q0.375 -0.59375 0.984375 -0.9375q0.625 -0.34375 1.25 -0.34375q0.59375 0 1.140625 0.234375q0.5625 0.21875 0.984375 0.6875q0.421875 0.46875 0.671875 1.171875q0.25 0.703125 0.25 1.65625q0 0.96875 -0.265625 1.703125q-0.265625 0.734375 -0.703125 1.234375q-0.421875 0.484375 -0.984375 0.734375q-0.546875 0.234375 -1.109375 0.234375q-0.6875 0 -1.265625 -0.296875q-0.5625 -0.3125 -0.9375 -0.84375l0 3.625l-1.1875 0l0 -9.984375zm1.171875 4.265625q0.03125 1.1875 0.546875 1.703125q0.515625 0.515625 1.265625 0.515625q0.40625 0 0.796875 -0.125q0.40625 -0.140625 0.734375 -0.453125q0.34375 -0.3125 0.53125 -0.8125q0.203125 -0.515625 0.203125 -1.28125q0 -1.40625 -0.578125 -2.1875q-0.578125 -0.78125 -1.640625 -0.8125q-0.328125 0 -0.671875 0.125q-0.328125 0.109375 -0.59375 0.375q-0.25 0.265625 -0.421875 0.734375q-0.171875 0.453125 -0.171875 1.125l0 1.09375z" fill-rule="nonzero"></path><path fill="#fce5cd" d="m386.37796 75.30827l87.1181 0l0 22.374725l-87.1181 0z" fill-rule="nonzero"></path><path stroke="#666666" stroke-width="1.0" stroke-linejoin="round" stroke-linecap="butt" d="m386.37796 75.30827l87.1181 0l0 22.374725l-87.1181 0z" fill-rule="nonzero"></path><path fill="#000000" d="m402.7179 85.87627l-0.453125 0.703125q-0.0625 -0.015625 -0.0625 -0.09375q0 -0.078125 -0.015625 -0.109375q-0.203125 -0.25 -0.578125 -0.46875q-0.359375 -0.21875 -0.8125 -0.21875q-0.203125 0 -0.40625 0.0625q-0.1875 0.046875 -0.34375 0.140625q-0.140625 0.078125 -0.234375 0.21875q-0.078125 0.125 -0.078125 0.3125q0 0.125 0.0625 0.234375q0.0625 0.109375 0.203125 0.203125q0.140625 0.09375 0.390625 0.203125q0.265625 0.09375 0.6875 0.21875q0.953125 0.25 1.34375 0.59375q0.390625 0.34375 0.390625 0.859375q0 0.328125 -0.15625 0.625q-0.140625 0.296875 -0.421875 0.515625q-0.265625 0.21875 -0.65625 0.34375q-0.375 0.125 -0.859375 0.125q-1.265625 0 -2.125 -0.796875l0.453125 -0.78125q0.03125 0.03125 0.046875 0.109375q0.015625 0.0625 0.078125 0.171875q0.0625 0.09375 0.234375 0.21875q0.171875 0.125 0.546875 0.28125q0.15625 0.078125 0.359375 0.109375q0.21875 0.03125 0.421875 0.03125q0.21875 0 0.4375 -0.046875q0.234375 -0.0625 0.421875 -0.171875q0.1875 -0.109375 0.296875 -0.25q0.109375 -0.15625 0.109375 -0.34375q0 -0.28125 -0.265625 -0.46875q-0.265625 -0.203125 -0.96875 -0.421875q-0.484375 -0.140625 -0.640625 -0.1875q-0.390625 -0.15625 -0.578125 -0.265625q-0.171875 -0.125 -0.3125 -0.28125q-0.140625 -0.15625 -0.234375 -0.359375q-0.078125 -0.203125 -0.078125 -0.453125q0 -0.265625 0.140625 -0.5q0.140625 -0.25 0.390625 -0.4375q0.265625 -0.1875 0.625 -0.296875q0.359375 -0.109375 0.765625 -0.109375q1.15625 0 1.875 0.78125zm2.640686 -2.015625l0.875 -0.140625q0 0.109375 -0.03125 0.1875q-0.03125 0.0625 -0.03125 0.109375l-0.140625 1.1875l1.65625 0l0 0.65625l-1.65625 0q-0.09375 0.96875 -0.09375 1.828125q0 0.53125 0.015625 0.90625q0.03125 0.359375 0.125 0.5625q0.09375 0.203125 0.265625 0.328125q0.171875 0.109375 0.46875 0.109375q0.515625 0 1.125 -0.453125l0.25 0.625q-0.765625 0.5625 -1.5625 0.5625q-0.796875 0 -1.171875 -0.46875q-0.359375 -0.484375 -0.3125 -1.5625q0 -0.390625 0.015625 -1.0q0.015625 -0.625 0.09375 -1.4375l-1.1875 0l0 -0.65625l1.21875 0l0.078125 -1.34375zm4.265686 1.9375q0.671875 -0.703125 1.796875 -0.703125q0.921875 0 1.453125 0.46875q0.53125 0.46875 0.53125 1.5625l0 3.109375l-0.75 0l0 -0.546875q-0.796875 0.671875 -1.796875 0.671875q-0.390625 0 -0.71875 -0.125q-0.3125 -0.125 -0.53125 -0.3125q-0.21875 -0.203125 -0.34375 -0.453125q-0.109375 -0.25 -0.109375 -0.515625q0 -0.75 0.65625 -1.1875q0.65625 -0.453125 1.890625 -0.484375l0.953125 0l0 -0.1875q0 -0.75 -0.3125 -1.046875q-0.3125 -0.296875 -0.984375 -0.296875q-0.8125 0 -1.34375 0.5625l-0.390625 -0.515625zm3.0625 2.078125l-0.1875 0q-0.15625 0 -0.296875 0q-0.140625 0 -0.265625 0q-0.609375 0 -1.0 0.078125q-0.375 0.078125 -0.59375 0.234375q-0.21875 0.140625 -0.3125 0.328125q-0.078125 0.171875 -0.078125 0.375q0 0.359375 0.3125 0.609375q0.3125 0.25 0.75 0.25q0.34375 0 0.59375 -0.09375q0.265625 -0.109375 0.46875 -0.25q0.203125 -0.15625 0.3125 -0.3125q0.125 -0.171875 0.1875 -0.296875q0.109375 -0.21875 0.109375 -0.59375l0 -0.328125zm3.328186 -4.015625l0.875 -0.140625q0 0.109375 -0.03125 0.1875q-0.03125 0.0625 -0.03125 0.109375l-0.140625 1.1875l1.65625 0l0 0.65625l-1.65625 0q-0.09375 0.96875 -0.09375 1.828125q0 0.53125 0.015625 0.90625q0.03125 0.359375 0.125 0.5625q0.09375 0.203125 0.265625 0.328125q0.171875 0.109375 0.46875 0.109375q0.515625 0 1.125 -0.453125l0.25 0.625q-0.765625 0.5625 -1.5625 0.5625q-0.796875 0 -1.171875 -0.46875q-0.359375 -0.484375 -0.3125 -1.5625q0 -0.390625 0.015625 -1.0q0.015625 -0.625 0.09375 -1.4375l-1.1875 0l0 -0.65625l1.21875 0l0.078125 -1.34375zm4.437561 1.34375l2.0 0l0 4.390625l1.1875 0l0 0.640625l-3.265625 0l0 -0.640625l1.296875 0l0 -3.75l-1.21875 0l0 -0.640625zm1.21875 -2.015625q0.171875 -0.171875 0.40625 -0.171875q0.234375 0 0.390625 0.171875q0.171875 0.171875 0.171875 0.40625q0 0.234375 -0.171875 0.40625q-0.15625 0.15625 -0.390625 0.15625q-0.234375 0 -0.40625 -0.15625q-0.15625 -0.171875 -0.15625 -0.40625q0 -0.25 0.15625 -0.40625zm7.968811 2.859375l-0.5625 0.640625q-0.0625 -0.03125 -0.0625 -0.0625q0.015625 -0.046875 0 -0.109375q-0.015625 -0.0625 -0.09375 -0.15625q-0.0625 -0.109375 -0.25 -0.265625q-0.375 -0.3125 -1.03125 -0.3125q-0.3125 0 -0.609375 0.140625q-0.28125 0.125 -0.515625 0.375q-0.21875 0.234375 -0.34375 0.59375q-0.125 0.34375 -0.125 0.765625q0 0.4375 0.125 0.796875q0.125 0.359375 0.359375 0.625q0.234375 0.265625 0.546875 0.421875q0.328125 0.140625 0.703125 0.140625q0.765625 0 1.3125 -0.609375l0.46875 0.53125q-0.75 0.796875 -1.84375 0.796875q-0.53125 0 -1.0 -0.203125q-0.453125 -0.203125 -0.796875 -0.546875q-0.328125 -0.359375 -0.515625 -0.828125q-0.1875 -0.484375 -0.1875 -1.0625q0 -0.546875 0.1875 -1.03125q0.1875 -0.484375 0.515625 -0.828125q0.34375 -0.359375 0.8125 -0.546875q0.46875 -0.203125 1.015625 -0.203125q0.59375 0 1.078125 0.25q0.5 0.25 0.8125 0.6875zm9.390747 -3.1875q0.96875 0 1.546875 0.6875l-0.359375 0.71875q-0.09375 0 -0.09375 -0.078125q0 -0.09375 -0.015625 -0.140625q-0.1875 -0.25 -0.484375 -0.40625q-0.28125 -0.15625 -0.625 -0.15625q-0.28125 0 -0.5 0.078125q-0.203125 0.078125 -0.375 0.265625q-0.15625 0.1875 -0.234375 0.515625q-0.078125 0.3125 -0.078125 0.78125l0 0.375l1.640625 0l0 0.625l-1.640625 0l0 4.109375l-0.765625 0l0 -4.109375l-1.09375 0l0 -0.625l1.09375 0l0 -0.484375q0 -0.59375 0.140625 -1.0q0.15625 -0.421875 0.4375 -0.671875q0.28125 -0.25 0.640625 -0.359375q0.359375 -0.125 0.765625 -0.125zm2.734436 2.34375l2.0 0l0 4.390625l1.1875 0l0 0.640625l-3.265625 0l0 -0.640625l1.296875 0l0 -3.75l-1.21875 0l0 -0.640625zm1.21875 -2.015625q0.171875 -0.171875 0.40625 -0.171875q0.234375 0 0.390625 0.171875q0.171875 0.171875 0.171875 0.40625q0 0.234375 -0.171875 0.40625q-0.15625 0.15625 -0.390625 0.15625q-0.234375 0 -0.40625 -0.15625q-0.15625 -0.171875 -0.15625 -0.40625q0 -0.25 0.15625 -0.40625zm3.875061 -0.265625l2.21875 0l0 6.671875l1.46875 0l0 0.640625l-3.75 0l0 -0.640625l1.484375 0l0 -6.03125l-1.421875 0l0 -0.640625zm7.234436 2.171875q0.40625 0 0.78125 0.140625q0.375 0.140625 0.640625 0.4375q0.28125 0.28125 0.453125 0.734375q0.171875 0.453125 0.171875 1.0625q0 0.09375 0 0.1875q0 0.09375 -0.015625 0.1875l-3.578125 0q0.015625 0.515625 0.171875 0.875q0.171875 0.359375 0.40625 0.578125q0.25 0.21875 0.546875 0.3125q0.296875 0.09375 0.59375 0.09375q0.78125 0 1.296875 -0.5625l0.4375 0.4375q-0.640625 0.765625 -1.765625 0.765625q-0.546875 0 -1.0 -0.171875q-0.453125 -0.171875 -0.78125 -0.5q-0.3125 -0.328125 -0.5 -0.8125q-0.171875 -0.5 -0.171875 -1.125q0 -0.640625 0.1875 -1.125q0.1875 -0.5 0.5 -0.828125q0.3125 -0.34375 0.71875 -0.515625q0.421875 -0.171875 0.90625 -0.171875zm-1.515625 2.125l2.765625 0q0 -0.046875 0 -0.078125q0.015625 -0.046875 0.015625 -0.09375q0 -0.28125 -0.109375 -0.515625q-0.109375 -0.25 -0.28125 -0.4375q-0.171875 -0.1875 -0.421875 -0.296875q-0.234375 -0.109375 -0.5 -0.109375q-0.515625 0 -0.9375 0.375q-0.421875 0.359375 -0.53125 1.15625zm8.750061 -1.34375l-0.453125 0.703125q-0.0625 -0.015625 -0.0625 -0.09375q0 -0.078125 -0.015625 -0.109375q-0.203125 -0.25 -0.578125 -0.46875q-0.359375 -0.21875 -0.8125 -0.21875q-0.203125 0 -0.40625 0.0625q-0.1875 0.046875 -0.34375 0.140625q-0.140625 0.078125 -0.234375 0.21875q-0.078125 0.125 -0.078125 0.3125q0 0.125 0.0625 0.234375q0.0625 0.109375 0.203125 0.203125q0.140625 0.09375 0.390625 0.203125q0.265625 0.09375 0.6875 0.21875q0.953125 0.25 1.34375 0.59375q0.390625 0.34375 0.390625 0.859375q0 0.328125 -0.15625 0.625q-0.140625 0.296875 -0.421875 0.515625q-0.265625 0.21875 -0.65625 0.34375q-0.375 0.125 -0.859375 0.125q-1.265625 0 -2.125 -0.796875l0.453125 -0.78125q0.03125 0.03125 0.046875 0.109375q0.015625 0.0625 0.078125 0.171875q0.0625 0.09375 0.234375 0.21875q0.171875 0.125 0.546875 0.28125q0.15625 0.078125 0.359375 0.109375q0.21875 0.03125 0.421875 0.03125q0.21875 0 0.4375 -0.046875q0.234375 -0.0625 0.421875 -0.171875q0.1875 -0.109375 0.296875 -0.25q0.109375 -0.15625 0.109375 -0.34375q0 -0.28125 -0.265625 -0.46875q-0.265625 -0.203125 -0.96875 -0.421875q-0.484375 -0.140625 -0.640625 -0.1875q-0.390625 -0.15625 -0.578125 -0.265625q-0.171875 -0.125 -0.3125 -0.28125q-0.140625 -0.15625 -0.234375 -0.359375q-0.078125 -0.203125 -0.078125 -0.453125q0 -0.265625 0.140625 -0.5q0.140625 -0.25 0.390625 -0.4375q0.265625 -0.1875 0.625 -0.296875q0.359375 -0.109375 0.765625 -0.109375q1.15625 0 1.875 0.78125z" fill-rule="nonzero"></path><path fill="#d9ead3" d="m386.37796 97.683l87.1181 0l0 22.374733l-87.1181 0z" fill-rule="nonzero"></path><path stroke="#666666" stroke-width="1.0" stroke-linejoin="round" stroke-linecap="butt" d="m386.37796 97.683l87.1181 0l0 22.374733l-87.1181 0z" fill-rule="nonzero"></path><path fill="#000000" d="m398.31967 107.90349q0.921875 -0.953125 2.453125 -0.953125q1.25 0 1.984375 0.640625q0.734375 0.625 0.734375 2.109375l0 4.25l-1.03125 0l0 -0.75q-1.09375 0.921875 -2.453125 0.921875q-0.546875 0 -0.96875 -0.171875q-0.421875 -0.171875 -0.734375 -0.4375q-0.296875 -0.265625 -0.453125 -0.609375q-0.15625 -0.34375 -0.15625 -0.6875q0 -1.046875 0.890625 -1.640625q0.890625 -0.59375 2.578125 -0.65625l1.28125 0l0 -0.265625q0 -1.015625 -0.421875 -1.421875q-0.421875 -0.40625 -1.328125 -0.40625q-1.109375 0 -1.84375 0.765625l-0.53125 -0.6875zm4.171875 2.84375l-0.25 0q-0.21875 0 -0.40625 0q-0.1875 -0.015625 -0.359375 -0.015625q-0.828125 0 -1.359375 0.109375q-0.515625 0.109375 -0.8125 0.3125q-0.296875 0.1875 -0.421875 0.4375q-0.109375 0.25 -0.109375 0.53125q0 0.484375 0.421875 0.828125q0.421875 0.34375 1.03125 0.34375q0.453125 0 0.8125 -0.140625q0.359375 -0.140625 0.625 -0.34375q0.28125 -0.203125 0.4375 -0.421875q0.171875 -0.21875 0.25 -0.390625q0.140625 -0.296875 0.140625 -0.8125l0 -0.4375zm2.7031555 -3.65625l1.09375 0l0 1.046875q0.34375 -0.546875 0.921875 -0.859375q0.578125 -0.328125 1.15625 -0.328125q0.578125 0 1.09375 0.21875q0.515625 0.21875 0.90625 0.65625q0.40625 0.421875 0.625 1.09375q0.234375 0.65625 0.234375 1.546875q0 0.90625 -0.25 1.59375q-0.234375 0.6875 -0.640625 1.15625q-0.40625 0.453125 -0.921875 0.6875q-0.515625 0.234375 -1.0625 0.234375q-0.625 0 -1.171875 -0.28125q-0.53125 -0.296875 -0.875 -0.8125l0 3.40625l-1.109375 0l0 -9.359375zm1.09375 4.015625q0.03125 1.109375 0.5 1.59375q0.484375 0.46875 1.1875 0.46875q0.375 0 0.75 -0.109375q0.375 -0.125 0.6875 -0.421875q0.3125 -0.296875 0.5 -0.765625q0.1875 -0.484375 0.1875 -1.203125q0 -1.328125 -0.546875 -2.046875q-0.546875 -0.734375 -1.53125 -0.765625q-0.296875 0 -0.609375 0.109375q-0.3125 0.109375 -0.5625 0.359375q-0.25 0.25 -0.40625 0.6875q-0.15625 0.421875 -0.15625 1.046875l0 1.046875zm6.9219055 -4.015625l2.734375 0l0 5.984375l1.609375 0l0 0.875l-4.4375 0l0 -0.875l1.75 0l0 -5.109375l-1.65625 0l0 -0.875zm1.671875 -2.75q0.234375 -0.234375 0.546875 -0.234375q0.3125 0 0.546875 0.234375q0.234375 0.234375 0.234375 0.546875q0 0.3125 -0.234375 0.546875q-0.234375 0.21875 -0.546875 0.21875q-0.3125 0 -0.546875 -0.21875q-0.21875 -0.234375 -0.21875 -0.546875q0 -0.328125 0.21875 -0.546875zm12.296936 2.75l1.09375 0l0 1.046875q0.34375 -0.546875 0.921875 -0.859375q0.578125 -0.328125 1.15625 -0.328125q0.578125 0 1.09375 0.21875q0.515625 0.21875 0.90625 0.65625q0.40625 0.421875 0.625 1.09375q0.234375 0.65625 0.234375 1.546875q0 0.90625 -0.25 1.59375q-0.234375 0.6875 -0.640625 1.15625q-0.40625 0.453125 -0.921875 0.6875q-0.515625 0.234375 -1.0625 0.234375q-0.625 0 -1.171875 -0.28125q-0.53125 -0.296875 -0.875 -0.8125l0 3.40625l-1.109375 0l0 -9.359375zm1.09375 4.015625q0.03125 1.109375 0.5 1.59375q0.484375 0.46875 1.1875 0.46875q0.375 0 0.75 -0.109375q0.375 -0.125 0.6875 -0.421875q0.3125 -0.296875 0.5 -0.765625q0.1875 -0.484375 0.1875 -1.203125q0 -1.328125 -0.546875 -2.046875q-0.546875 -0.734375 -1.53125 -0.765625q-0.296875 0 -0.609375 0.109375q-0.3125 0.109375 -0.5625 0.359375q-0.25 0.25 -0.40625 0.6875q-0.15625 0.421875 -0.15625 1.046875l0 1.046875zm6.8125305 -4.015625l1.125 0l-0.03125 1.328125q0.3125 -0.71875 1.0 -1.09375q0.6875 -0.390625 1.46875 -0.390625q1.109375 0 1.828125 0.75l-0.5 1.03125q-0.171875 -0.21875 -0.3125 -0.375q-0.125 -0.15625 -0.28125 -0.25q-0.15625 -0.109375 -0.34375 -0.171875q-0.1875 -0.0625 -0.453125 -0.0625q-0.5 0 -0.9375 0.234375q-0.4375 0.234375 -0.765625 0.625q-0.3125 0.375 -0.515625 0.875q-0.1875 0.484375 -0.1875 1.03125l0 3.34375l-1.09375 0l0 -6.875zm9.6562805 -0.140625q0.625 0 1.1875 0.25q0.5625 0.234375 0.984375 0.703125q0.421875 0.46875 0.671875 1.140625q0.25 0.65625 0.25 1.484375q0 0.84375 -0.25 1.5q-0.234375 0.65625 -0.65625 1.140625q-0.421875 0.46875 -1.0 0.71875q-0.5625 0.25 -1.203125 0.25q-0.65625 0 -1.234375 -0.265625q-0.578125 -0.28125 -1.015625 -0.75q-0.4375 -0.484375 -0.703125 -1.140625q-0.25 -0.65625 -0.25 -1.421875q0 -0.765625 0.265625 -1.4375q0.265625 -0.671875 0.703125 -1.140625q0.453125 -0.484375 1.03125 -0.75q0.59375 -0.28125 1.21875 -0.28125zm2.0 3.609375q0 -0.640625 -0.171875 -1.140625q-0.171875 -0.515625 -0.453125 -0.859375q-0.28125 -0.34375 -0.65625 -0.515625q-0.359375 -0.1875 -0.765625 -0.1875q-0.40625 0 -0.78125 0.1875q-0.359375 0.171875 -0.640625 0.515625q-0.28125 0.34375 -0.453125 0.84375q-0.15625 0.484375 -0.15625 1.09375q0 0.609375 0.15625 1.109375q0.171875 0.484375 0.453125 0.84375q0.28125 0.359375 0.65625 0.5625q0.375 0.1875 0.796875 0.1875q0.421875 0 0.78125 -0.171875q0.375 -0.171875 0.640625 -0.5q0.28125 -0.34375 0.4375 -0.84375q0.15625 -0.5 0.15625 -1.125zm6.9531555 -3.46875l1.109375 0l-2.234375 3.328125l2.53125 3.53125l-1.234375 0l-1.890625 -2.671875l-1.78125 2.671875l-1.234375 0l2.421875 -3.484375l-2.375 -3.375l1.1875 0l1.78125 2.546875l1.71875 -2.546875zm2.7812805 0.484375l-0.203125 -0.484375l1.34375 0q0 0.125 -0.03125 0.21875q-0.03125 0.078125 -0.03125 0.140625q0 0.0625 0.03125 0.09375l2.0 5.046875l1.3125 -3.6875q0.1875 -0.515625 0.3125 -0.96875q0.125 -0.46875 0.1875 -0.84375l1.125 0q-0.125 0.390625 -0.28125 0.890625q-0.15625 0.5 -0.390625 1.09375l-1.859375 4.90625l-0.28125 0.75q-0.359375 1.0 -0.921875 1.40625q-0.5625 0.421875 -1.296875 0.421875q-0.96875 0 -1.578125 -0.578125l0.578125 -0.96875q0.03125 0.046875 0.0625 0.140625q0.03125 0.109375 0.046875 0.125q0 0 0.0625 0.0625q0.0625 0.078125 0.15625 0.140625q0.09375 0.078125 0.25 0.125q0.15625 0.0625 0.328125 0.0625q0.4375 0 0.765625 -0.265625q0.34375 -0.265625 0.671875 -0.96875l0.21875 -0.515625l-2.578125 -6.34375z" fill-rule="nonzero"></path><path fill="#000000" fill-opacity="0.0" d="m50.67454 61.293964l174.17322 0l0 62.204723l-174.17322 0z" fill-rule="nonzero"></path><path stroke="#000000" stroke-width="1.0" stroke-linejoin="round" stroke-linecap="butt" d="m50.67454 61.293964l174.17322 0l0 62.204723l-174.17322 0z" fill-rule="nonzero"></path><path fill="#000000" d="m91.40178 99.31632l4.1875 -12.046875l0.140625 0l4.5625 12.046875l-1.359375 0l-1.3125 -3.453125l-3.765625 0l-1.140625 3.453125l-1.3125 0zm5.90625 -4.484375l-1.671875 -4.515625l-1.515625 4.515625l3.1875 0zm4.265625 -7.359375l3.796875 0q0.984375 0 1.671875 0.265625q0.703125 0.25 1.140625 0.71875q0.453125 0.46875 0.671875 1.078125q0.21875 0.609375 0.25 1.28125q-0.03125 0.6875 -0.25 1.296875q-0.21875 0.59375 -0.65625 1.03125q-0.421875 0.4375 -1.09375 0.703125q-0.671875 0.25 -1.640625 0.25l-2.53125 0l0 5.21875l-1.359375 0l0 -11.84375zm1.359375 1.265625l0 4.171875l2.375 0q1.296875 0 1.828125 -0.5625q0.546875 -0.5625 0.609375 -1.484375q-0.03125 -0.4375 -0.1875 -0.828125q-0.140625 -0.390625 -0.421875 -0.671875q-0.28125 -0.28125 -0.734375 -0.453125q-0.4375 -0.171875 -1.0625 -0.171875l-2.40625 0zm8.515625 -1.265625l5.875 0l0 1.125l-2.34375 0l0 9.640625l2.453125 0l0 1.09375l-6.125 0l0 -1.125l2.34375 0l0 -9.609375l-2.203125 0l0 -1.125zm25.25 1.40625l-0.84375 1.140625q-0.09375 -0.03125 -0.109375 -0.15625q0 -0.125 -0.03125 -0.1875q-0.359375 -0.53125 -0.984375 -0.84375q-0.609375 -0.328125 -1.53125 -0.328125q-0.875 0 -1.453125 0.515625q-0.578125 0.515625 -0.578125 1.21875q0 0.421875 0.140625 0.71875q0.140625 0.296875 0.4375 0.59375q0.296875 0.28125 0.859375 0.578125q0.578125 0.296875 1.484375 0.65625q0.875 0.359375 1.4375 0.71875q0.578125 0.34375 0.921875 0.75q0.34375 0.390625 0.484375 0.84375q0.140625 0.4375 0.140625 0.984375q0 0.609375 -0.234375 1.234375q-0.21875 0.609375 -0.703125 1.09375q-0.484375 0.484375 -1.234375 0.796875q-0.734375 0.296875 -1.78125 0.296875q-2.296875 0 -3.703125 -1.515625l0.78125 -1.375q0.09375 0.0625 0.09375 0.203125q0 0.125 0.0625 0.203125q0.4375 0.546875 1.171875 0.921875q0.75 0.375 1.796875 0.375q0.53125 0 0.96875 -0.1875q0.453125 -0.1875 0.765625 -0.46875q0.328125 -0.296875 0.515625 -0.703125q0.1875 -0.421875 0.1875 -0.875q0 -0.359375 -0.125 -0.65625q-0.109375 -0.296875 -0.40625 -0.546875q-0.28125 -0.25 -0.8125 -0.5q-0.515625 -0.265625 -1.375 -0.609375q-0.921875 -0.359375 -1.546875 -0.734375q-0.609375 -0.375 -1.0 -0.75q-0.375 -0.375 -0.53125 -0.8125q-0.15625 -0.4375 -0.15625 -0.953125q0 -0.640625 0.265625 -1.203125q0.28125 -0.578125 0.765625 -1.0q0.484375 -0.4375 1.140625 -0.671875q0.671875 -0.234375 1.4375 -0.234375q0.96875 0 1.8125 0.390625q0.859375 0.375 1.46875 1.078125zm5.984375 1.546875q0.6875 0 1.328125 0.25q0.640625 0.25 1.125 0.75q0.484375 0.5 0.78125 1.28125q0.296875 0.78125 0.296875 1.84375q0 0.15625 -0.015625 0.3125q0 0.15625 -0.015625 0.3125l-6.1875 0q0.046875 0.90625 0.3125 1.53125q0.28125 0.609375 0.703125 1.0q0.421875 0.375 0.921875 0.546875q0.515625 0.15625 1.03125 0.15625q1.359375 0 2.25 -0.96875l0.75 0.734375q-1.09375 1.328125 -3.03125 1.328125q-0.953125 0 -1.75 -0.296875q-0.78125 -0.296875 -1.34375 -0.859375q-0.546875 -0.5625 -0.84375 -1.40625q-0.296875 -0.859375 -0.296875 -1.9375q0 -1.109375 0.3125 -1.953125q0.3125 -0.859375 0.84375 -1.4375q0.546875 -0.578125 1.265625 -0.875q0.71875 -0.3125 1.5625 -0.3125zm-2.625 3.6875l4.765625 0q0 -0.078125 0.015625 -0.140625q0.015625 -0.078125 0.015625 -0.171875q0 -0.46875 -0.1875 -0.890625q-0.1875 -0.4375 -0.484375 -0.75q-0.296875 -0.3125 -0.71875 -0.5q-0.40625 -0.1875 -0.875 -0.1875q-0.890625 0 -1.625 0.640625q-0.71875 0.625 -0.90625 2.0zm8.90625 -3.484375l1.4375 0l-0.046875 1.671875q0.40625 -0.90625 1.265625 -1.390625q0.859375 -0.484375 1.859375 -0.484375q1.40625 0 2.3125 0.953125l-0.625 1.3125q-0.21875 -0.296875 -0.390625 -0.484375q-0.15625 -0.1875 -0.359375 -0.3125q-0.203125 -0.140625 -0.4375 -0.21875q-0.234375 -0.078125 -0.578125 -0.078125q-0.625 0 -1.1875 0.296875q-0.546875 0.296875 -0.953125 0.78125q-0.40625 0.484375 -0.65625 1.109375q-0.25 0.625 -0.25 1.3125l0 4.234375l-1.390625 0l0 -8.703125zm8.40625 0.484375l-0.1875 -0.484375l1.625 0q0 0.140625 -0.03125 0.25q-0.015625 0.09375 -0.015625 0.171875q0 0.03125 0.015625 0.0625l2.5 6.34375l1.40625 -3.234375q0.453125 -1.046875 0.734375 -1.9375q0.296875 -0.890625 0.453125 -1.65625l1.234375 0q-0.390625 1.59375 -1.3125 3.796875l-2.109375 4.953125l-1.0625 0l-3.25 -8.265625zm13.296875 -0.6875q0.6875 0 1.328125 0.25q0.640625 0.25 1.125 0.75q0.484375 0.5 0.78125 1.28125q0.296875 0.78125 0.296875 1.84375q0 0.15625 -0.015625 0.3125q0 0.15625 -0.015625 0.3125l-6.1875 0q0.046875 0.90625 0.3125 1.53125q0.28125 0.609375 0.703125 1.0q0.421875 0.375 0.921875 0.546875q0.515625 0.15625 1.03125 0.15625q1.359375 0 2.25 -0.96875l0.75 0.734375q-1.09375 1.328125 -3.03125 1.328125q-0.953125 0 -1.75 -0.296875q-0.78125 -0.296875 -1.34375 -0.859375q-0.546875 -0.5625 -0.84375 -1.40625q-0.296875 -0.859375 -0.296875 -1.9375q0 -1.109375 0.3125 -1.953125q0.3125 -0.859375 0.84375 -1.4375q0.546875 -0.578125 1.265625 -0.875q0.71875 -0.3125 1.5625 -0.3125zm-2.625 3.6875l4.765625 0q0 -0.078125 0.015625 -0.140625q0.015625 -0.078125 0.015625 -0.171875q0 -0.46875 -0.1875 -0.890625q-0.1875 -0.4375 -0.484375 -0.75q-0.296875 -0.3125 -0.71875 -0.5q-0.40625 -0.1875 -0.875 -0.1875q-0.890625 0 -1.625 0.640625q-0.71875 0.625 -0.90625 2.0zm8.90625 -3.484375l1.4375 0l-0.046875 1.671875q0.40625 -0.90625 1.265625 -1.390625q0.859375 -0.484375 1.859375 -0.484375q1.40625 0 2.3125 0.953125l-0.625 1.3125q-0.21875 -0.296875 -0.390625 -0.484375q-0.15625 -0.1875 -0.359375 -0.3125q-0.203125 -0.140625 -0.4375 -0.21875q-0.234375 -0.078125 -0.578125 -0.078125q-0.625 0 -1.1875 0.296875q-0.546875 0.296875 -0.953125 0.78125q-0.40625 0.484375 -0.65625 1.109375q-0.25 0.625 -0.25 1.3125l0 4.234375l-1.390625 0l0 -8.703125z" fill-rule="nonzero"></path><path fill="#000000" fill-opacity="0.0" d="m18.91076 123.49869l237.70078 0l0 49.76378l-237.70078 0z" fill-rule="nonzero"></path><path fill="#000000" d="m38.089283 147.98807q-0.28125 0.28125 -0.421875 0.625q-0.125 0.34375 -0.125 0.71875q0 0.375 0.15625 0.734375q0.15625 0.34375 0.40625 0.609375q0.265625 0.25 0.609375 0.40625q0.34375 0.15625 0.734375 0.15625q0.390625 0 0.734375 -0.15625q0.34375 -0.15625 0.609375 -0.421875q0.265625 -0.265625 0.421875 -0.609375q0.15625 -0.34375 0.15625 -0.71875q0 -0.375 -0.15625 -0.71875q-0.15625 -0.359375 -0.421875 -0.625q-0.265625 -0.265625 -0.625 -0.421875q-0.34375 -0.15625 -0.71875 -0.15625q-0.78125 0 -1.359375 0.578125zm3.5 -0.8125q0.921875 -0.78125 2.171875 -0.78125l0.25 0l0.171875 1.109375q-0.140625 -0.015625 -0.265625 -0.015625q-0.125 -0.015625 -0.25 -0.015625q-0.84375 0 -1.5 0.421875q0.4375 0.65625 0.4375 1.453125q0 0.609375 -0.25 1.15625q-0.25 0.546875 -0.6875 0.953125q-0.421875 0.40625 -1.0 0.640625q-0.5625 0.234375 -1.203125 0.234375q-0.53125 0 -1.09375 -0.203125q-0.609375 0.59375 -0.609375 0.984375q0 0.328125 0.359375 0.515625q0.375 0.171875 1.015625 0.171875q0.359375 0 0.734375 -0.03125q0.375 -0.03125 0.703125 -0.03125q0.84375 0 1.453125 0.171875q0.625 0.15625 1.0 0.453125q0.390625 0.296875 0.578125 0.703125q0.1875 0.390625 0.1875 0.84375q0 0.515625 -0.25 1.0q-0.234375 0.484375 -0.734375 0.84375q-0.5 0.375 -1.25 0.59375q-0.75 0.21875 -1.75 0.21875q-1.046875 0 -1.796875 -0.171875q-0.75 -0.15625 -1.203125 -0.4375q-0.453125 -0.28125 -0.703125 -0.65625q-0.234375 -0.359375 -0.234375 -0.78125q0 -1.03125 1.421875 -1.921875q-0.703125 -0.359375 -0.703125 -1.203125q0 -0.8125 1.0 -1.625q-0.609375 -0.40625 -0.953125 -1.03125q-0.34375 -0.625 -0.34375 -1.328125q0 -0.640625 0.265625 -1.203125q0.265625 -0.5625 0.703125 -0.984375q0.453125 -0.421875 1.03125 -0.65625q0.578125 -0.234375 1.1875 -0.234375q1.28125 0 2.109375 0.84375zm-3.375 7.671875q-1.09375 0.609375 -1.09375 1.328125q0 0.375 0.21875 0.625q0.21875 0.265625 0.59375 0.421875q0.375 0.171875 0.875 0.234375q0.5 0.078125 1.0625 0.078125q1.15625 0 1.90625 -0.421875q0.765625 -0.40625 0.765625 -1.109375q-0.03125 -0.515625 -0.421875 -0.796875q-0.390625 -0.28125 -1.234375 -0.28125q-0.09375 0 -0.1875 0.015625q-0.09375 0 -0.1875 0q-0.71875 0 -1.296875 -0.03125q-0.5625 -0.03125 -1.0 -0.0625zm8.28125 -8.234375l3.46875 0l0 7.578125l2.046875 0l0 1.109375l-5.625 0l0 -1.109375l2.21875 0l0 -6.46875l-2.109375 0l0 -1.109375zm2.125 -3.484375q0.28125 -0.296875 0.6875 -0.296875q0.390625 0 0.6875 0.296875q0.296875 0.296875 0.296875 0.703125q0 0.390625 -0.296875 0.6875q-0.296875 0.28125 -0.6875 0.28125q-0.40625 0 -0.6875 -0.28125q-0.28125 -0.296875 -0.28125 -0.6875q0 -0.421875 0.28125 -0.703125zm8.765625 1.171875l1.5 -0.25q0 0.171875 -0.046875 0.3125q-0.046875 0.125 -0.078125 0.203125l-0.21875 2.046875l2.84375 0l0 1.125l-2.84375 0q-0.171875 1.6875 -0.171875 3.171875q0 0.90625 0.03125 1.546875q0.046875 0.625 0.203125 0.984375q0.15625 0.359375 0.453125 0.5625q0.3125 0.1875 0.828125 0.1875q0.875 0 1.9375 -0.765625l0.421875 1.078125q-1.3125 0.96875 -2.703125 0.96875q-1.359375 0 -2.0 -0.828125q-0.625 -0.828125 -0.5625 -2.6875q0 -0.6875 0.03125 -1.75q0.046875 -1.0625 0.15625 -2.46875l-2.03125 0l0 -1.125l2.09375 0l0.15625 -2.3125zm7.078121 11.0l0 -12.640625l1.578125 0q0 0.03125 0 0.03125q0.015625 0 0.015625 0.015625q0 0.046875 -0.09375 0.15625q-0.078125 0.109375 -0.109375 0.265625l0 5.03125q0.515625 -0.796875 1.28125 -1.265625q0.765625 -0.484375 1.5625 -0.484375q0.59375 0 1.078125 0.203125q0.484375 0.1875 0.84375 0.625q0.359375 0.4375 0.546875 1.125q0.203125 0.6875 0.203125 1.671875l0 5.265625l-1.359375 0l0 -5.21875q0 -1.375 -0.46875 -1.921875q-0.453125 -0.546875 -1.125 -0.546875q-0.4375 0 -0.875 0.1875q-0.4375 0.1875 -0.84375 0.53125q-0.40625 0.34375 -0.625 0.84375q-0.21875 0.484375 -0.21875 1.125l0 5.0l-1.390625 0zm9.203125 -8.6875l1.359375 0l0 4.84375q0 0.84375 0.15625 1.40625q0.15625 0.5625 0.421875 0.90625q0.28125 0.328125 0.625 0.484375q0.359375 0.15625 0.78125 0.15625q0.453125 -0.046875 0.859375 -0.234375q0.421875 -0.1875 0.75 -0.53125q0.34375 -0.359375 0.53125 -0.90625q0.1875 -0.546875 0.1875 -1.328125l0 -4.796875l1.390625 0l0 7.90625q0 0.4375 0.09375 0.78125l-1.4375 0q-0.03125 -0.140625 -0.046875 -0.296875q-0.015625 -0.15625 0 -0.375l0.015625 -0.65625q-0.40625 0.71875 -1.125 1.125q-0.71875 0.40625 -1.5625 0.40625q-0.671875 0 -1.203125 -0.234375q-0.53125 -0.234375 -0.96875 -0.71875q-0.421875 -0.5 -0.640625 -1.265625q-0.21875 -0.765625 -0.21875 -1.828125l0.03125 -4.84375zm9.265625 -3.953125l1.59375 0l0 0.046875q0 0.09375 -0.109375 0.1875q-0.09375 0.078125 -0.09375 0.1875l0 4.859375q0.40625 -0.703125 1.125 -1.109375q0.71875 -0.421875 1.453125 -0.421875q0.71875 0 1.359375 0.28125q0.65625 0.265625 1.140625 0.828125q0.5 0.5625 0.78125 1.40625q0.296875 0.828125 0.296875 1.953125q0 1.171875 -0.3125 2.046875q-0.3125 0.859375 -0.828125 1.4375q-0.515625 0.578125 -1.171875 0.859375q-0.640625 0.28125 -1.328125 0.28125q-0.796875 0 -1.46875 -0.359375q-0.65625 -0.359375 -1.09375 -0.984375l-0.46875 1.140625l-0.875 0l0 -12.640625zm2.375 11.3125q0.359375 0.1875 0.640625 0.265625q0.296875 0.0625 0.53125 0.0625q0.390625 0 0.84375 -0.140625q0.453125 -0.15625 0.84375 -0.515625q0.390625 -0.359375 0.640625 -0.96875q0.265625 -0.609375 0.265625 -1.53125q0 -1.734375 -0.703125 -2.640625q-0.703125 -0.921875 -2.03125 -0.921875q-0.484375 0 -1.015625 0.34375q-0.53125 0.34375 -0.78125 0.921875q-0.21875 0.5625 -0.21875 1.859375q0 0.796875 0.03125 1.34375q0.046875 0.546875 0.15625 0.921875q0.109375 0.375 0.296875 0.609375q0.203125 0.21875 0.5 0.390625zm11.125 -0.328125q0.34375 0.34375 0.34375 0.78125q0 0.4375 -0.328125 0.765625q-0.328125 0.3125 -0.8125 0.3125q-0.46875 0 -0.796875 -0.3125q-0.3125 -0.3125 -0.3125 -0.765625q0 -0.453125 0.328125 -0.765625q0.34375 -0.328125 0.78125 -0.328125q0.4375 0 0.796875 0.3125zm12.703125 -5.578125l-0.96875 1.109375q-0.09375 -0.046875 -0.09375 -0.109375q0.015625 -0.078125 -0.015625 -0.1875q-0.03125 -0.109375 -0.140625 -0.28125q-0.109375 -0.171875 -0.453125 -0.453125q-0.65625 -0.53125 -1.765625 -0.53125q-0.5625 0 -1.0625 0.234375q-0.5 0.21875 -0.890625 0.640625q-0.375 0.421875 -0.609375 1.03125q-0.21875 0.59375 -0.21875 1.328125q0 0.75 0.21875 1.375q0.234375 0.625 0.625 1.09375q0.40625 0.453125 0.953125 0.703125q0.5625 0.25 1.21875 0.25q1.3125 0 2.265625 -1.0625l0.796875 0.9375q-1.28125 1.359375 -3.171875 1.359375q-0.921875 0 -1.71875 -0.328125q-0.78125 -0.34375 -1.375 -0.953125q-0.578125 -0.609375 -0.90625 -1.4375q-0.3125 -0.828125 -0.3125 -1.8125q0 -0.96875 0.3125 -1.796875q0.328125 -0.84375 0.90625 -1.4375q0.59375 -0.609375 1.390625 -0.953125q0.8125 -0.34375 1.765625 -0.34375q1.015625 0 1.859375 0.4375q0.859375 0.421875 1.390625 1.1875zm5.46875 -1.640625q0.796875 0 1.5 0.3125q0.71875 0.3125 1.25 0.90625q0.53125 0.59375 0.84375 1.4375q0.3125 0.84375 0.3125 1.890625q0 1.0625 -0.3125 1.90625q-0.296875 0.828125 -0.828125 1.421875q-0.53125 0.59375 -1.25 0.921875q-0.71875 0.3125 -1.53125 0.3125q-0.84375 0 -1.578125 -0.34375q-0.71875 -0.34375 -1.28125 -0.9375q-0.546875 -0.609375 -0.875 -1.4375q-0.3125 -0.84375 -0.3125 -1.8125q0 -0.96875 0.328125 -1.8125q0.328125 -0.859375 0.890625 -1.453125q0.5625 -0.609375 1.296875 -0.953125q0.75 -0.359375 1.546875 -0.359375zm2.546875 4.578125q0 -0.8125 -0.21875 -1.453125q-0.21875 -0.640625 -0.578125 -1.078125q-0.359375 -0.4375 -0.828125 -0.65625q-0.46875 -0.234375 -0.984375 -0.234375q-0.515625 0 -0.984375 0.234375q-0.453125 0.21875 -0.8125 0.65625q-0.34375 0.4375 -0.5625 1.0625q-0.203125 0.609375 -0.203125 1.390625q0 0.765625 0.203125 1.390625q0.21875 0.625 0.5625 1.09375q0.359375 0.453125 0.828125 0.703125q0.484375 0.234375 1.015625 0.234375q0.53125 0 0.984375 -0.21875q0.46875 -0.21875 0.8125 -0.640625q0.359375 -0.421875 0.5625 -1.046875q0.203125 -0.640625 0.203125 -1.4375zm2.671875 4.296875l0 -8.6875l1.25 0l0 0.859375q0.3125 -0.46875 0.78125 -0.765625q0.484375 -0.296875 1.015625 -0.296875q0.546875 0 0.96875 0.359375q0.4375 0.359375 0.546875 0.90625q0.25 -0.5625 0.78125 -0.90625q0.53125 -0.359375 1.15625 -0.359375q0.890625 0 1.3125 0.640625q0.421875 0.625 0.375 1.578125l0 6.671875l-1.25 0l0 -6.15625q0 -0.59375 -0.0625 -0.921875q-0.046875 -0.34375 -0.1875 -0.53125q-0.125 -0.1875 -0.265625 -0.234375q-0.125 -0.046875 -0.34375 -0.046875q-0.234375 0 -0.484375 0.203125q-0.25 0.203125 -0.4375 0.515625q-0.1875 0.296875 -0.3125 0.6875q-0.109375 0.390625 -0.109375 0.75l0 5.734375l-1.265625 0l0 -6.046875q0 -1.078125 -0.203125 -1.4375q-0.203125 -0.359375 -0.703125 -0.359375q-0.453125 0 -0.890625 0.546875q-0.421875 0.53125 -0.421875 1.5l0 5.796875l-1.25 0zm9.828125 0.25l5.9375 -12.890625l1.140625 0.59375l-5.953125 12.84375l-1.125 -0.546875zm10.5 -8.9375l4.625 0l0 8.265625q0 0.984375 -0.265625 1.671875q-0.265625 0.703125 -0.734375 1.140625q-0.46875 0.4375 -1.09375 0.65625q-0.625 0.21875 -1.34375 0.265625q-1.671875 0 -2.671875 -1.21875l0.90625 -1.1875q0.09375 0.09375 0.09375 0.1875q0.015625 0.109375 0.0625 0.21875q0.0625 0.109375 0.234375 0.25q0.171875 0.140625 0.578125 0.359375q0.40625 0.203125 0.890625 0.203125q0.84375 0 1.390625 -0.578125q0.5625 -0.578125 0.5625 -1.890625l0 -7.21875l-3.234375 0l0 -1.125zm3.234375 -3.484375q0.28125 -0.296875 0.703125 -0.296875q0.390625 0 0.6875 0.296875q0.296875 0.28125 0.296875 0.703125q0 0.390625 -0.296875 0.6875q-0.296875 0.28125 -0.6875 0.28125q-0.40625 0 -0.703125 -0.28125q-0.28125 -0.296875 -0.28125 -0.6875q0 -0.421875 0.28125 -0.703125zm8.531265 3.296875q0.796875 0 1.5 0.3125q0.71875 0.3125 1.25 0.90625q0.53125 0.59375 0.84375 1.4375q0.3125 0.84375 0.3125 1.890625q0 1.0625 -0.3125 1.90625q-0.296875 0.828125 -0.828125 1.421875q-0.53125 0.59375 -1.25 0.921875q-0.71875 0.3125 -1.53125 0.3125q-0.84375 0 -1.578125 -0.34375q-0.71875 -0.34375 -1.28125 -0.9375q-0.546875 -0.609375 -0.875 -1.4375q-0.3125 -0.84375 -0.3125 -1.8125q0 -0.96875 0.328125 -1.8125q0.328125 -0.859375 0.890625 -1.453125q0.5625 -0.609375 1.296875 -0.953125q0.75 -0.359375 1.546875 -0.359375zm2.546875 4.578125q0 -0.8125 -0.21875 -1.453125q-0.21875 -0.640625 -0.578125 -1.078125q-0.359375 -0.4375 -0.828125 -0.65625q-0.46875 -0.234375 -0.984375 -0.234375q-0.515625 0 -0.984375 0.234375q-0.453125 0.21875 -0.8125 0.65625q-0.34375 0.4375 -0.5625 1.0625q-0.203125 0.609375 -0.203125 1.390625q0 0.765625 0.203125 1.390625q0.21875 0.625 0.5625 1.09375q0.359375 0.453125 0.828125 0.703125q0.484375 0.234375 1.015625 0.234375q0.53125 0 0.984375 -0.21875q0.46875 -0.21875 0.8125 -0.640625q0.359375 -0.421875 0.5625 -1.046875q0.203125 -0.640625 0.203125 -1.4375zm3.6875 -3.359375q1.15625 -1.21875 3.09375 -1.21875q1.59375 0 2.515625 0.8125q0.921875 0.796875 0.921875 2.6875l0 5.375l-1.296875 0l0 -0.953125q-1.375 1.15625 -3.109375 1.15625q-0.6875 0 -1.234375 -0.203125q-0.53125 -0.203125 -0.921875 -0.546875q-0.375 -0.34375 -0.578125 -0.78125q-0.1875 -0.4375 -0.1875 -0.875q0 -1.3125 1.125 -2.0625q1.125 -0.765625 3.25 -0.84375l1.640625 0l0 -0.328125q0 -1.28125 -0.546875 -1.796875q-0.53125 -0.515625 -1.671875 -0.515625q-1.40625 0 -2.34375 0.96875l-0.65625 -0.875zm5.28125 3.59375l-0.328125 0q-0.265625 0 -0.5 0q-0.234375 -0.015625 -0.46875 -0.015625q-1.046875 0 -1.71875 0.140625q-0.65625 0.140625 -1.046875 0.390625q-0.375 0.234375 -0.515625 0.5625q-0.140625 0.3125 -0.140625 0.671875q0 0.609375 0.53125 1.046875q0.53125 0.421875 1.3125 0.421875q0.578125 0 1.03125 -0.171875q0.453125 -0.1875 0.796875 -0.4375q0.34375 -0.25 0.546875 -0.53125q0.203125 -0.28125 0.3125 -0.484375q0.1875 -0.375 0.1875 -1.03125l0 -0.5625zm3.5625 -8.578125l1.5625 0q0 0.125 -0.09375 0.265625q-0.078125 0.125 -0.078125 0.234375l0 7.453125l4.34375 -4.03125q0.4375 0.09375 1.015625 0.09375l0.5 0l-3.65625 3.4375l4.25 5.1875l-1.765625 0.078125l-3.546875 -4.421875l-1.140625 1.0625l0 3.28125l-1.390625 0l0 -12.640625zm10.09375 3.953125l3.46875 0l0 7.578125l2.046875 0l0 1.109375l-5.625 0l0 -1.109375l2.21875 0l0 -6.46875l-2.109375 0l0 -1.109375zm2.125 -3.484375q0.28125 -0.296875 0.6875 -0.296875q0.390625 0 0.6875 0.296875q0.296875 0.296875 0.296875 0.703125q0 0.390625 -0.296875 0.6875q-0.296875 0.28125 -0.6875 0.28125q-0.40625 0 -0.6875 -0.28125q-0.28125 -0.296875 -0.28125 -0.6875q0 -0.421875 0.28125 -0.703125zm6.484375 12.171875l0 -8.6875l1.40625 0l0 1.546875q0.484375 -0.796875 1.25 -1.265625q0.78125 -0.484375 1.578125 -0.484375q0.5625 0 1.0625 0.203125q0.5 0.1875 0.859375 0.625q0.359375 0.4375 0.546875 1.125q0.203125 0.6875 0.203125 1.671875l0 5.265625l-1.34375 0l0 -5.21875q0 -1.375 -0.46875 -1.921875q-0.46875 -0.546875 -1.125 -0.546875q-0.4375 0 -0.90625 0.1875q-0.453125 0.1875 -0.828125 0.546875q-0.359375 0.34375 -0.59375 0.84375q-0.234375 0.484375 -0.234375 1.109375l0 5.0l-1.40625 0zm9.25 0.25l5.9375 -12.890625l1.140625 0.59375l-5.953125 12.84375l-1.125 -0.546875z" fill-rule="nonzero"></path><path fill="#000000" d="m204.44867 142.47244l4.4375 0l0 11.171875l2.4375 0l0 1.65625l-7.0 0l0 -1.65625l2.4375 0l0 -9.515625l-2.3125 0l0 -1.65625zm12.765625 3.765625q0.859375 0 1.609375 0.3125q0.75 0.3125 1.3125 0.921875q0.5625 0.59375 0.875 1.46875q0.328125 0.859375 0.328125 1.96875q0 1.109375 -0.3125 1.984375q-0.3125 0.859375 -0.875 1.46875q-0.546875 0.609375 -1.3125 0.9375q-0.75 0.3125 -1.640625 0.3125q-0.890625 0 -1.671875 -0.34375q-0.78125 -0.34375 -1.359375 -0.96875q-0.578125 -0.625 -0.90625 -1.46875q-0.328125 -0.859375 -0.328125 -1.875q0 -1.015625 0.328125 -1.875q0.34375 -0.875 0.921875 -1.5q0.59375 -0.625 1.359375 -0.984375q0.78125 -0.359375 1.671875 -0.359375zm2.015625 4.71875q0 -0.734375 -0.15625 -1.28125q-0.15625 -0.5625 -0.4375 -0.9375q-0.28125 -0.390625 -0.65625 -0.59375q-0.375 -0.203125 -0.828125 -0.203125q-0.453125 0 -0.828125 0.203125q-0.375 0.203125 -0.640625 0.578125q-0.265625 0.375 -0.421875 0.921875q-0.140625 0.546875 -0.140625 1.234375q0 0.6875 0.140625 1.234375q0.15625 0.546875 0.421875 0.9375q0.265625 0.390625 0.640625 0.609375q0.390625 0.21875 0.875 0.21875q0.921875 0 1.46875 -0.75q0.5625 -0.765625 0.5625 -2.171875zm7.3125 -4.71875q0.859375 0 1.609375 0.3125q0.75 0.3125 1.3125 0.921875q0.5625 0.59375 0.875 1.46875q0.328125 0.859375 0.328125 1.96875q0 1.109375 -0.3125 1.984375q-0.3125 0.859375 -0.875 1.46875q-0.546875 0.609375 -1.3125 0.9375q-0.75 0.3125 -1.640625 0.3125q-0.890625 0 -1.671875 -0.34375q-0.78125 -0.34375 -1.359375 -0.96875q-0.578125 -0.625 -0.90625 -1.46875q-0.328125 -0.859375 -0.328125 -1.875q0 -1.015625 0.328125 -1.875q0.34375 -0.875 0.921875 -1.5q0.59375 -0.625 1.359375 -0.984375q0.78125 -0.359375 1.671875 -0.359375zm2.015625 4.71875q0 -0.734375 -0.15625 -1.28125q-0.15625 -0.5625 -0.4375 -0.9375q-0.28125 -0.390625 -0.65625 -0.59375q-0.375 -0.203125 -0.828125 -0.203125q-0.453125 0 -0.828125 0.203125q-0.375 0.203125 -0.640625 0.578125q-0.265625 0.375 -0.421875 0.921875q-0.140625 0.546875 -0.140625 1.234375q0 0.6875 0.140625 1.234375q0.15625 0.546875 0.421875 0.9375q0.265625 0.390625 0.640625 0.609375q0.390625 0.21875 0.875 0.21875q0.921875 0 1.46875 -0.75q0.5625 -0.765625 0.5625 -2.171875zm5.71875 -6.609375l2.34375 -0.390625q0 0.234375 -0.078125 0.390625q-0.0625 0.15625 -0.125 0.375l-0.1875 1.703125l2.6875 0l0 1.734375l-2.765625 0q-0.03125 0.6875 -0.09375 1.421875q-0.046875 0.734375 -0.046875 1.4375q0 0.734375 0.03125 1.25q0.03125 0.515625 0.125 0.84375q0.109375 0.328125 0.3125 0.484375q0.203125 0.140625 0.53125 0.140625q0.3125 0 0.828125 -0.265625q0.515625 -0.28125 1.1875 -0.78125l0.65625 1.75q-0.765625 0.5625 -1.515625 0.859375q-0.75 0.3125 -1.484375 0.3125q-0.734375 0 -1.28125 -0.21875q-0.53125 -0.203125 -0.875 -0.640625q-0.34375 -0.453125 -0.515625 -1.125q-0.15625 -0.6875 -0.15625 -1.65625q0 -0.640625 0.03125 -1.578125q0.046875 -0.9375 0.140625 -2.234375l-1.921875 0l0 -1.734375l2.03125 0l0.140625 -2.078125z" fill-rule="nonzero"></path><path fill="#000000" fill-opacity="0.0" d="m256.25986 123.49869l260.28348 0l0 49.76378l-260.28348 0z" fill-rule="nonzero"></path><path fill="#000000" d="m272.73752 147.98807q-0.28125 0.28125 -0.421875 0.625q-0.125 0.34375 -0.125 0.71875q0 0.375 0.15625 0.734375q0.15625 0.34375 0.40625 0.609375q0.265625 0.25 0.609375 0.40625q0.34375 0.15625 0.734375 0.15625q0.390625 0 0.734375 -0.15625q0.34375 -0.15625 0.609375 -0.421875q0.265625 -0.265625 0.421875 -0.609375q0.15625 -0.34375 0.15625 -0.71875q0 -0.375 -0.15625 -0.71875q-0.15625 -0.359375 -0.421875 -0.625q-0.265625 -0.265625 -0.625 -0.421875q-0.34375 -0.15625 -0.71875 -0.15625q-0.78125 0 -1.359375 0.578125zm3.5 -0.8125q0.921875 -0.78125 2.171875 -0.78125l0.25 0l0.171875 1.109375q-0.140625 -0.015625 -0.265625 -0.015625q-0.125 -0.015625 -0.25 -0.015625q-0.84375 0 -1.5 0.421875q0.4375 0.65625 0.4375 1.453125q0 0.609375 -0.25 1.15625q-0.25 0.546875 -0.6875 0.953125q-0.421875 0.40625 -1.0 0.640625q-0.5625 0.234375 -1.203125 0.234375q-0.53125 0 -1.09375 -0.203125q-0.609375 0.59375 -0.609375 0.984375q0 0.328125 0.359375 0.515625q0.375 0.171875 1.015625 0.171875q0.359375 0 0.734375 -0.03125q0.375 -0.03125 0.703125 -0.03125q0.84375 0 1.453125 0.171875q0.625 0.15625 1.0 0.453125q0.390625 0.296875 0.578125 0.703125q0.1875 0.390625 0.1875 0.84375q0 0.515625 -0.25 1.0q-0.234375 0.484375 -0.734375 0.84375q-0.5 0.375 -1.25 0.59375q-0.75 0.21875 -1.75 0.21875q-1.046875 0 -1.796875 -0.171875q-0.75 -0.15625 -1.203125 -0.4375q-0.453125 -0.28125 -0.703125 -0.65625q-0.234375 -0.359375 -0.234375 -0.78125q0 -1.03125 1.421875 -1.921875q-0.703125 -0.359375 -0.703125 -1.203125q0 -0.8125 1.0 -1.625q-0.609375 -0.40625 -0.953125 -1.03125q-0.34375 -0.625 -0.34375 -1.328125q0 -0.640625 0.265625 -1.203125q0.265625 -0.5625 0.703125 -0.984375q0.453125 -0.421875 1.03125 -0.65625q0.578125 -0.234375 1.1875 -0.234375q1.28125 0 2.109375 0.84375zm-3.375 7.671875q-1.09375 0.609375 -1.09375 1.328125q0 0.375 0.21875 0.625q0.21875 0.265625 0.59375 0.421875q0.375 0.171875 0.875 0.234375q0.5 0.078125 1.0625 0.078125q1.15625 0 1.90625 -0.421875q0.765625 -0.40625 0.765625 -1.109375q-0.03125 -0.515625 -0.421875 -0.796875q-0.390625 -0.28125 -1.234375 -0.28125q-0.09375 0 -0.1875 0.015625q-0.09375 0 -0.1875 0q-0.71875 0 -1.296875 -0.03125q-0.5625 -0.03125 -1.0 -0.0625zm8.28125 -8.234375l3.46875 0l0 7.578125l2.046875 0l0 1.109375l-5.625 0l0 -1.109375l2.21875 0l0 -6.46875l-2.109375 0l0 -1.109375zm2.125 -3.484375q0.28125 -0.296875 0.6875 -0.296875q0.390625 0 0.6875 0.296875q0.296875 0.296875 0.296875 0.703125q0 0.390625 -0.296875 0.6875q-0.296875 0.28125 -0.6875 0.28125q-0.40625 0 -0.6875 -0.28125q-0.28125 -0.296875 -0.28125 -0.6875q0 -0.421875 0.28125 -0.703125zm8.765625 1.171875l1.5 -0.25q0 0.171875 -0.046875 0.3125q-0.046875 0.125 -0.078125 0.203125l-0.21875 2.046875l2.84375 0l0 1.125l-2.84375 0q-0.171875 1.6875 -0.171875 3.171875q0 0.90625 0.03125 1.546875q0.046875 0.625 0.203125 0.984375q0.15625 0.359375 0.453125 0.5625q0.3125 0.1875 0.828125 0.1875q0.875 0 1.9375 -0.765625l0.421875 1.078125q-1.3125 0.96875 -2.703125 0.96875q-1.359375 0 -2.0 -0.828125q-0.625 -0.828125 -0.5625 -2.6875q0 -0.6875 0.03125 -1.75q0.046875 -1.0625 0.15625 -2.46875l-2.03125 0l0 -1.125l2.09375 0l0.15625 -2.3125zm7.078125 11.0l0 -12.640625l1.578125 0q0 0.03125 0 0.03125q0.015625 0 0.015625 0.015625q0 0.046875 -0.09375 0.15625q-0.078125 0.109375 -0.109375 0.265625l0 5.03125q0.515625 -0.796875 1.28125 -1.265625q0.765625 -0.484375 1.5625 -0.484375q0.59375 0 1.078125 0.203125q0.484375 0.1875 0.84375 0.625q0.359375 0.4375 0.546875 1.125q0.203125 0.6875 0.203125 1.671875l0 5.265625l-1.359375 0l0 -5.21875q0 -1.375 -0.46875 -1.921875q-0.453125 -0.546875 -1.125 -0.546875q-0.4375 0 -0.875 0.1875q-0.4375 0.1875 -0.84375 0.53125q-0.40625 0.34375 -0.625 0.84375q-0.21875 0.484375 -0.21875 1.125l0 5.0l-1.390625 0zm9.203125 -8.6875l1.359375 0l0 4.84375q0 0.84375 0.15625 1.40625q0.15625 0.5625 0.421875 0.90625q0.28125 0.328125 0.625 0.484375q0.359375 0.15625 0.78125 0.15625q0.453125 -0.046875 0.859375 -0.234375q0.421875 -0.1875 0.75 -0.53125q0.34375 -0.359375 0.53125 -0.90625q0.1875 -0.546875 0.1875 -1.328125l0 -4.796875l1.390625 0l0 7.90625q0 0.4375 0.09375 0.78125l-1.4375 0q-0.03125 -0.140625 -0.046875 -0.296875q-0.015625 -0.15625 0 -0.375l0.015625 -0.65625q-0.40625 0.71875 -1.125 1.125q-0.71875 0.40625 -1.5625 0.40625q-0.671875 0 -1.203125 -0.234375q-0.53125 -0.234375 -0.96875 -0.71875q-0.421875 -0.5 -0.640625 -1.265625q-0.21875 -0.765625 -0.21875 -1.828125l0.03125 -4.84375zm9.265625 -3.953125l1.59375 0l0 0.046875q0 0.09375 -0.109375 0.1875q-0.09375 0.078125 -0.09375 0.1875l0 4.859375q0.40625 -0.703125 1.125 -1.109375q0.71875 -0.421875 1.453125 -0.421875q0.71875 0 1.359375 0.28125q0.65625 0.265625 1.140625 0.828125q0.5 0.5625 0.78125 1.40625q0.296875 0.828125 0.296875 1.953125q0 1.171875 -0.3125 2.046875q-0.3125 0.859375 -0.828125 1.4375q-0.515625 0.578125 -1.171875 0.859375q-0.640625 0.28125 -1.328125 0.28125q-0.796875 0 -1.46875 -0.359375q-0.65625 -0.359375 -1.09375 -0.984375l-0.46875 1.140625l-0.875 0l0 -12.640625zm2.375 11.3125q0.359375 0.1875 0.640625 0.265625q0.296875 0.0625 0.53125 0.0625q0.390625 0 0.84375 -0.140625q0.453125 -0.15625 0.84375 -0.515625q0.390625 -0.359375 0.640625 -0.96875q0.265625 -0.609375 0.265625 -1.53125q0 -1.734375 -0.703125 -2.640625q-0.703125 -0.921875 -2.03125 -0.921875q-0.484375 0 -1.015625 0.34375q-0.53125 0.34375 -0.78125 0.921875q-0.21875 0.5625 -0.21875 1.859375q0 0.796875 0.03125 1.34375q0.046875 0.546875 0.15625 0.921875q0.109375 0.375 0.296875 0.609375q0.203125 0.21875 0.5 0.390625zm11.125 -0.328125q0.34375 0.34375 0.34375 0.78125q0 0.4375 -0.328125 0.765625q-0.328125 0.3125 -0.8125 0.3125q-0.46875 0 -0.796875 -0.3125q-0.3125 -0.3125 -0.3125 -0.765625q0 -0.453125 0.328125 -0.765625q0.34375 -0.328125 0.78125 -0.328125q0.4375 0 0.796875 0.3125zm12.703125 -5.578125l-0.96875 1.109375q-0.09375 -0.046875 -0.09375 -0.109375q0.015625 -0.078125 -0.015625 -0.1875q-0.03125 -0.109375 -0.140625 -0.28125q-0.109375 -0.171875 -0.453125 -0.453125q-0.65625 -0.53125 -1.765625 -0.53125q-0.5625 0 -1.0625 0.234375q-0.5 0.21875 -0.890625 0.640625q-0.375 0.421875 -0.609375 1.03125q-0.21875 0.59375 -0.21875 1.328125q0 0.75 0.21875 1.375q0.234375 0.625 0.625 1.09375q0.40625 0.453125 0.953125 0.703125q0.5625 0.25 1.21875 0.25q1.3125 0 2.265625 -1.0625l0.796875 0.9375q-1.28125 1.359375 -3.171875 1.359375q-0.921875 0 -1.71875 -0.328125q-0.78125 -0.34375 -1.375 -0.953125q-0.578125 -0.609375 -0.90625 -1.4375q-0.3125 -0.828125 -0.3125 -1.8125q0 -0.96875 0.3125 -1.796875q0.328125 -0.84375 0.90625 -1.4375q0.59375 -0.609375 1.390625 -0.953125q0.8125 -0.34375 1.765625 -0.34375q1.015625 0 1.859375 0.4375q0.859375 0.421875 1.390625 1.1875zm5.46875 -1.640625q0.796875 0 1.5 0.3125q0.71875 0.3125 1.25 0.90625q0.53125 0.59375 0.84375 1.4375q0.3125 0.84375 0.3125 1.890625q0 1.0625 -0.3125 1.90625q-0.296875 0.828125 -0.828125 1.421875q-0.53125 0.59375 -1.25 0.921875q-0.71875 0.3125 -1.53125 0.3125q-0.84375 0 -1.578125 -0.34375q-0.71875 -0.34375 -1.28125 -0.9375q-0.546875 -0.609375 -0.875 -1.4375q-0.3125 -0.84375 -0.3125 -1.8125q0 -0.96875 0.328125 -1.8125q0.328125 -0.859375 0.890625 -1.453125q0.5625 -0.609375 1.296875 -0.953125q0.75 -0.359375 1.546875 -0.359375zm2.546875 4.578125q0 -0.8125 -0.21875 -1.453125q-0.21875 -0.640625 -0.578125 -1.078125q-0.359375 -0.4375 -0.828125 -0.65625q-0.46875 -0.234375 -0.984375 -0.234375q-0.515625 0 -0.984375 0.234375q-0.453125 0.21875 -0.8125 0.65625q-0.34375 0.4375 -0.5625 1.0625q-0.203125 0.609375 -0.203125 1.390625q0 0.765625 0.203125 1.390625q0.21875 0.625 0.5625 1.09375q0.359375 0.453125 0.828125 0.703125q0.484375 0.234375 1.015625 0.234375q0.53125 0 0.984375 -0.21875q0.46875 -0.21875 0.8125 -0.640625q0.359375 -0.421875 0.5625 -1.046875q0.203125 -0.640625 0.203125 -1.4375zm2.671875 4.296875l0 -8.6875l1.25 0l0 0.859375q0.3125 -0.46875 0.78125 -0.765625q0.484375 -0.296875 1.015625 -0.296875q0.546875 0 0.96875 0.359375q0.4375 0.359375 0.546875 0.90625q0.25 -0.5625 0.78125 -0.90625q0.53125 -0.359375 1.15625 -0.359375q0.890625 0 1.3125 0.640625q0.421875 0.625 0.375 1.578125l0 6.671875l-1.25 0l0 -6.15625q0 -0.59375 -0.0625 -0.921875q-0.046875 -0.34375 -0.1875 -0.53125q-0.125 -0.1875 -0.265625 -0.234375q-0.125 -0.046875 -0.34375 -0.046875q-0.234375 0 -0.484375 0.203125q-0.25 0.203125 -0.4375 0.515625q-0.1875 0.296875 -0.3125 0.6875q-0.109375 0.390625 -0.109375 0.75l0 5.734375l-1.265625 0l0 -6.046875q0 -1.078125 -0.203125 -1.4375q-0.203125 -0.359375 -0.703125 -0.359375q-0.453125 0 -0.890625 0.546875q-0.421875 0.53125 -0.421875 1.5l0 5.796875l-1.25 0zm9.828125 0.25l5.9375 -12.890625l1.140625 0.59375l-5.953125 12.84375l-1.125 -0.546875zm10.5 -8.9375l4.625 0l0 8.265625q0 0.984375 -0.265625 1.671875q-0.265625 0.703125 -0.734375 1.140625q-0.46875 0.4375 -1.09375 0.65625q-0.625 0.21875 -1.34375 0.265625q-1.671875 0 -2.671875 -1.21875l0.90625 -1.1875q0.09375 0.09375 0.09375 0.1875q0.015625 0.109375 0.0625 0.21875q0.0625 0.109375 0.234375 0.25q0.171875 0.140625 0.578125 0.359375q0.40625 0.203125 0.890625 0.203125q0.84375 0 1.390625 -0.578125q0.5625 -0.578125 0.5625 -1.890625l0 -7.21875l-3.234375 0l0 -1.125zm3.234375 -3.484375q0.28125 -0.296875 0.703125 -0.296875q0.390625 0 0.6875 0.296875q0.296875 0.28125 0.296875 0.703125q0 0.390625 -0.296875 0.6875q-0.296875 0.28125 -0.6875 0.28125q-0.40625 0 -0.703125 -0.28125q-0.28125 -0.296875 -0.28125 -0.6875q0 -0.421875 0.28125 -0.703125zm8.53125 3.296875q0.796875 0 1.5 0.3125q0.71875 0.3125 1.25 0.90625q0.53125 0.59375 0.84375 1.4375q0.3125 0.84375 0.3125 1.890625q0 1.0625 -0.3125 1.90625q-0.296875 0.828125 -0.828125 1.421875q-0.53125 0.59375 -1.25 0.921875q-0.71875 0.3125 -1.53125 0.3125q-0.84375 0 -1.578125 -0.34375q-0.71875 -0.34375 -1.28125 -0.9375q-0.546875 -0.609375 -0.875 -1.4375q-0.3125 -0.84375 -0.3125 -1.8125q0 -0.96875 0.328125 -1.8125q0.328125 -0.859375 0.890625 -1.453125q0.5625 -0.609375 1.296875 -0.953125q0.75 -0.359375 1.546875 -0.359375zm2.546875 4.578125q0 -0.8125 -0.21875 -1.453125q-0.21875 -0.640625 -0.578125 -1.078125q-0.359375 -0.4375 -0.828125 -0.65625q-0.46875 -0.234375 -0.984375 -0.234375q-0.515625 0 -0.984375 0.234375q-0.453125 0.21875 -0.8125 0.65625q-0.34375 0.4375 -0.5625 1.0625q-0.203125 0.609375 -0.203125 1.390625q0 0.765625 0.203125 1.390625q0.21875 0.625 0.5625 1.09375q0.359375 0.453125 0.828125 0.703125q0.484375 0.234375 1.015625 0.234375q0.53125 0 0.984375 -0.21875q0.46875 -0.21875 0.8125 -0.640625q0.359375 -0.421875 0.5625 -1.046875q0.203125 -0.640625 0.203125 -1.4375zm3.6875 -3.359375q1.15625 -1.21875 3.09375 -1.21875q1.59375 0 2.515625 0.8125q0.921875 0.796875 0.921875 2.6875l0 5.375l-1.296875 0l0 -0.953125q-1.375 1.15625 -3.109375 1.15625q-0.6875 0 -1.234375 -0.203125q-0.53125 -0.203125 -0.921875 -0.546875q-0.375 -0.34375 -0.578125 -0.78125q-0.1875 -0.4375 -0.1875 -0.875q0 -1.3125 1.125 -2.0625q1.125 -0.765625 3.25 -0.84375l1.640625 0l0 -0.328125q0 -1.28125 -0.546875 -1.796875q-0.53125 -0.515625 -1.671875 -0.515625q-1.40625 0 -2.34375 0.96875l-0.65625 -0.875zm5.28125 3.59375l-0.328125 0q-0.265625 0 -0.5 0q-0.234375 -0.015625 -0.46875 -0.015625q-1.046875 0 -1.71875 0.140625q-0.65625 0.140625 -1.046875 0.390625q-0.375 0.234375 -0.515625 0.5625q-0.140625 0.3125 -0.140625 0.671875q0 0.609375 0.53125 1.046875q0.53125 0.421875 1.3125 0.421875q0.578125 0 1.03125 -0.171875q0.453125 -0.1875 0.796875 -0.4375q0.34375 -0.25 0.546875 -0.53125q0.203125 -0.28125 0.3125 -0.484375q0.1875 -0.375 0.1875 -1.03125l0 -0.5625zm3.5625 -8.578125l1.5625 0q0 0.125 -0.09375 0.265625q-0.078125 0.125 -0.078125 0.234375l0 7.453125l4.34375 -4.03125q0.4375 0.09375 1.015625 0.09375l0.5 0l-3.65625 3.4375l4.25 5.1875l-1.765625 0.078125l-3.546875 -4.421875l-1.140625 1.0625l0 3.28125l-1.390625 0l0 -12.640625zm10.09375 3.953125l3.46875 0l0 7.578125l2.046875 0l0 1.109375l-5.625 0l0 -1.109375l2.21875 0l0 -6.46875l-2.109375 0l0 -1.109375zm2.125 -3.484375q0.28125 -0.296875 0.6875 -0.296875q0.390625 0 0.6875 0.296875q0.296875 0.296875 0.296875 0.703125q0 0.390625 -0.296875 0.6875q-0.296875 0.28125 -0.6875 0.28125q-0.40625 0 -0.6875 -0.28125q-0.28125 -0.296875 -0.28125 -0.6875q0 -0.421875 0.28125 -0.703125zm6.484375 12.171875l0 -8.6875l1.40625 0l0 1.546875q0.484375 -0.796875 1.25 -1.265625q0.78125 -0.484375 1.578125 -0.484375q0.5625 0 1.0625 0.203125q0.5 0.1875 0.859375 0.625q0.359375 0.4375 0.546875 1.125q0.203125 0.6875 0.203125 1.671875l0 5.265625l-1.34375 0l0 -5.21875q0 -1.375 -0.46875 -1.921875q-0.46875 -0.546875 -1.125 -0.546875q-0.4375 0 -0.90625 0.1875q-0.453125 0.1875 -0.828125 0.546875q-0.359375 0.34375 -0.59375 0.84375q-0.234375 0.484375 -0.234375 1.109375l0 5.0l-1.40625 0zm9.25 0.25l5.9375 -12.890625l1.140625 0.59375l-5.953125 12.84375l-1.125 -0.546875z" fill-rule="nonzero"></path><path fill="#000000" d="m439.0969 142.47244l4.4375 0l0 11.171875l2.4375 0l0 1.65625l-7.0 0l0 -1.65625l2.4375 0l0 -9.515625l-2.3125 0l0 -1.65625zm12.765625 3.765625q0.859375 0 1.609375 0.3125q0.75 0.3125 1.3125 0.921875q0.5625 0.59375 0.875 1.46875q0.328125 0.859375 0.328125 1.96875q0 1.109375 -0.3125 1.984375q-0.3125 0.859375 -0.875 1.46875q-0.546875 0.609375 -1.3125 0.9375q-0.75 0.3125 -1.640625 0.3125q-0.890625 0 -1.671875 -0.34375q-0.78125 -0.34375 -1.359375 -0.96875q-0.578125 -0.625 -0.90625 -1.46875q-0.328125 -0.859375 -0.328125 -1.875q0 -1.015625 0.328125 -1.875q0.34375 -0.875 0.921875 -1.5q0.59375 -0.625 1.359375 -0.984375q0.78125 -0.359375 1.671875 -0.359375zm2.015625 4.71875q0 -0.734375 -0.15625 -1.28125q-0.15625 -0.5625 -0.4375 -0.9375q-0.28125 -0.390625 -0.65625 -0.59375q-0.375 -0.203125 -0.828125 -0.203125q-0.453125 0 -0.828125 0.203125q-0.375 0.203125 -0.640625 0.578125q-0.265625 0.375 -0.421875 0.921875q-0.140625 0.546875 -0.140625 1.234375q0 0.6875 0.140625 1.234375q0.15625 0.546875 0.421875 0.9375q0.265625 0.390625 0.640625 0.609375q0.390625 0.21875 0.875 0.21875q0.921875 0 1.46875 -0.75q0.5625 -0.765625 0.5625 -2.171875zm7.3125 -4.71875q0.859375 0 1.609375 0.3125q0.75 0.3125 1.3125 0.921875q0.5625 0.59375 0.875 1.46875q0.328125 0.859375 0.328125 1.96875q0 1.109375 -0.3125 1.984375q-0.3125 0.859375 -0.875 1.46875q-0.546875 0.609375 -1.3125 0.9375q-0.75 0.3125 -1.640625 0.3125q-0.890625 0 -1.671875 -0.34375q-0.78125 -0.34375 -1.359375 -0.96875q-0.578125 -0.625 -0.90625 -1.46875q-0.328125 -0.859375 -0.328125 -1.875q0 -1.015625 0.328125 -1.875q0.34375 -0.875 0.921875 -1.5q0.59375 -0.625 1.359375 -0.984375q0.78125 -0.359375 1.671875 -0.359375zm2.015625 4.71875q0 -0.734375 -0.15625 -1.28125q-0.15625 -0.5625 -0.4375 -0.9375q-0.28125 -0.390625 -0.65625 -0.59375q-0.375 -0.203125 -0.828125 -0.203125q-0.453125 0 -0.828125 0.203125q-0.375 0.203125 -0.640625 0.578125q-0.265625 0.375 -0.421875 0.921875q-0.140625 0.546875 -0.140625 1.234375q0 0.6875 0.140625 1.234375q0.15625 0.546875 0.421875 0.9375q0.265625 0.390625 0.640625 0.609375q0.390625 0.21875 0.875 0.21875q0.921875 0 1.46875 -0.75q0.5625 -0.765625 0.5625 -2.171875zm5.71875 -6.609375l2.34375 -0.390625q0 0.234375 -0.078125 0.390625q-0.0625 0.15625 -0.125 0.375l-0.1875 1.703125l2.6875 0l0 1.734375l-2.765625 0q-0.03125 0.6875 -0.09375 1.421875q-0.046875 0.734375 -0.046875 1.4375q0 0.734375 0.03125 1.25q0.03125 0.515625 0.125 0.84375q0.109375 0.328125 0.3125 0.484375q0.203125 0.140625 0.53125 0.140625q0.3125 0 0.828125 -0.265625q0.515625 -0.28125 1.1875 -0.78125l0.65625 1.75q-0.765625 0.5625 -1.515625 0.859375q-0.75 0.3125 -1.484375 0.3125q-0.734375 0 -1.28125 -0.21875q-0.53125 -0.203125 -0.875 -0.640625q-0.34375 -0.453125 -0.515625 -1.125q-0.15625 -0.6875 -0.15625 -1.65625q0 -0.640625 0.03125 -1.578125q0.046875 -0.9375 0.140625 -2.234375l-1.921875 0l0 -1.734375l2.03125 0l0.140625 -2.078125zm7.3125 4.0l7.125 0l0 1.734375l-7.125 0l0 -1.734375zm16.484375 -1.921875l0 7.8125q0 0.234375 0.046875 0.515625q0.0625 0.265625 0.125 0.546875l-2.046875 0q-0.109375 -0.078125 -0.15625 -0.25q-0.03125 -0.171875 -0.03125 -0.296875l0 -0.28125q-0.203125 0.28125 -0.484375 0.5q-0.265625 0.21875 -0.59375 0.375q-0.328125 0.171875 -0.671875 0.25q-0.328125 0.078125 -0.640625 0.078125q-0.703125 0 -1.25 -0.203125q-0.546875 -0.203125 -0.9375 -0.640625q-0.375 -0.453125 -0.578125 -1.15625q-0.1875 -0.703125 -0.1875 -1.703125l0 -5.546875l2.09375 0l0 5.546875q0 1.03125 0.34375 1.5q0.34375 0.46875 0.921875 0.46875q0.40625 0 0.75 -0.15625q0.34375 -0.171875 0.59375 -0.453125q0.265625 -0.296875 0.40625 -0.703125q0.15625 -0.40625 0.15625 -0.875l0 -5.328125l2.140625 0zm6.015625 -3.96875q0.265625 0 0.5 0.109375q0.25 0.09375 0.421875 0.25q0.1875 0.15625 0.296875 0.390625q0.109375 0.21875 0.109375 0.46875q0 0.25 -0.109375 0.484375q-0.109375 0.21875 -0.296875 0.390625q-0.171875 0.15625 -0.421875 0.25q-0.234375 0.09375 -0.5 0.09375q-0.28125 0 -0.53125 -0.09375q-0.234375 -0.09375 -0.421875 -0.25q-0.171875 -0.171875 -0.28125 -0.390625q-0.109375 -0.234375 -0.109375 -0.484375q0 -0.21875 0.078125 -0.4375q0.09375 -0.21875 0.25 -0.390625q0.171875 -0.171875 0.421875 -0.28125q0.25 -0.109375 0.59375 -0.109375zm-3.140625 3.96875l4.15625 0l0 7.21875l1.953125 0l0 1.65625l-6.203125 0l0 -1.65625l2.140625 0l0 -5.5625l-2.046875 0l0 -1.65625z" fill-rule="nonzero"></path></g></svg>

